<?xml version="1.0" encoding="UTF-8" standalone="no"?>
<!-- Created with Inkscape (http://www.inkscape.org/) -->

<svg
   version="1.1"
   id="svg2"
   width="1000"
   height="667.34668"
   viewBox="0 0 1000 667.34668"
   sodipodi:docname="7749585.eps"
   xmlns:inkscape="http://www.inkscape.org/namespaces/inkscape"
   xmlns:sodipodi="http://sodipodi.sourceforge.net/DTD/sodipodi-0.dtd"
   xmlns="http://www.w3.org/2000/svg"
   xmlns:svg="http://www.w3.org/2000/svg">
  <defs
     id="defs6" />
  <sodipodi:namedview
     id="namedview4"
     pagecolor="#ffffff"
     bordercolor="#000000"
     borderopacity="0.25"
     inkscape:showpageshadow="2"
     inkscape:pageopacity="0.0"
     inkscape:pagecheckerboard="0"
     inkscape:deskcolor="#d1d1d1" />
  <g
     id="g8"
     inkscape:groupmode="layer"
     inkscape:label="ink_ext_XXXXXX"
     transform="matrix(1.3333333,0,0,-1.3333333,0,667.34667)">
    <g
       id="g10"
       transform="scale(0.1)">
      <path
         d="m 4753.6,2414.5 c -500,-90 -980,-40 -1450,110 -640,200 -1230,520 -1910,520 -76.05,-1.29 -154.44,-1.25 -234.22,-1.21 C 770.777,3043.47 348.855,3043.66 0,2890.47 V 5.05078 H 7500 V 3589.51 c -137.52,-25.58 -273.59,-63.78 -406.4,-115.01 -810,-310 -1460,-890 -2340,-1060"
         style="fill:#fef4dc;fill-opacity:1;fill-rule:nonzero;stroke:none"
         id="path12" />
      <path
         d="M 0,5005.05 V 2890.47 c 420.484,184.64 947.109,146.46 1393.6,154.03 680,0 1270,-320 1910,-520 470,-150 950,-200 1450,-110 880,170 1530,750 2340,1060 132.81,51.23 268.88,89.43 406.4,115.01 V 5005.05 H 0"
         style="fill:#fffaef;fill-opacity:1;fill-rule:nonzero;stroke:none"
         id="path14" />
      <path
         d="M 1412.76,5.87109 C 1166.19,335.648 929.547,692.32 864.699,1098.95 c -64.847,406.62 87.489,874.85 454.251,1062.04 236.08,120.49 503.43,105.74 773.45,90.98 200.44,-10.95 402.36,-21.9 594.04,22.47 406.76,94.15 711.02,420.35 1056.64,654.59 400.36,271.34 878.76,426.09 1362.2,440.63 345.31,10.38 704.63,-54.92 984.81,-257.01 363.29,-262.02 544.01,-723.19 558.63,-1170.87 14.62,-447.69 -116.6,-887.15 -273.68,-1306.632 -76.3,-203.75 -158.29,-435.789 -60.43,-630.09722 L 1412.76,5.87109"
         style="fill:#e7e9f7;fill-opacity:1;fill-rule:nonzero;stroke:none"
         id="path16" />
      <path
         d="m 1766.82,940.641 c -14.05,-50.59 -29.74,-100.93 -47.59,-150.852 -9.81,-27.449 -50.33,-15.758 -40.54,11.602 27.3,76.359 49.5,153.66 68.2,231.389 -20.87,91.87 -44.29,181.4 -70.9,267.83 -26.14,84.9 -55.51,166.73 -87.86,244.7 -13.92,-75.27 -27.35,-150.57 -37.53,-225.97 -3.8,-28.12 -47.44,-28.08 -43.65,0 13.35,98.92 32.27,197.64 50.59,296.39 -68.78,151.69 -149.7,286.44 -242.06,396.32 -5.15,-81.89 -14.82,-164.02 -31.28,-246.22 -5.6,-27.94 -49.28,-28.05 -43.66,0 11.07,55.27 19.29,110.69 24.95,166.05 4.34,42.37 7.14,84.58 8.88,126.69 -87.62,93.86 -184.64,166.07 -290.522,210.51 -87.758,36.84 -185.246,53.66 -281.864,-4.87 -96.617,-58.54 -190.015,-210.39 -200.957,-371.48 -7.414,-109.06 23.203,-203.32 66.645,-267.93 42.008,-62.47 95.367,-101.89 147.191,-143.45 138.121,2.58 276.524,6.83 409.927,-16.46 11.41,-1.99 15.93,-16.36 11.64,-26.85 -4.97,-12.16 -17.55,-17.22 -28.89,-15.24 -47.27,8.25 -95.52,12.8 -144.204,15.14 -65.508,3.14 -131.606,2.38 -197.777,1.07 125.531,-108.48 241.961,-239.41 347.791,-389.83 90.34,8.25 177.73,-4.94 265.87,-12.81 11.65,-1.04 20.59,-9.16 18.89,-21.83 -1.48,-11.06 -13.13,-22.86 -24.75,-21.829 -76.41,6.828 -153.43,18.989 -231.82,15.559 70.88,-104.969 136.73,-218.938 197.11,-340.911 3.02,0.422 6.24,0.2 9.64,-0.98 69.87,-24.168 147.29,-41.969 225.24,-37.848 28.32,1.5 22.29,-42.172 -5.86,-43.66 -69.22,-3.652 -138.76,9.168 -202.94,28.59 87.99,-186.121 163.54,-389.922 224.96,-608.41022 h 291.05 C 1861.58,329.48 1827.01,646.422 1766.82,940.641"
         style="fill:#3899a9;fill-opacity:1;fill-rule:nonzero;stroke:none"
         id="path18" />
      <path
         d="M 1786.28,50.2813 C 1655.14,983.23 1277.72,1750.75 746.461,2102.47 c -2.301,1.52 -5.402,0.89 -6.93,-1.41 -1.523,-2.3 -0.89,-5.41 1.41,-6.93 C 1268.52,1745.14 1645.62,980.07 1776.38,48.8906 c 0.38,-2.7304 2.91,-4.6406 5.64,-4.25 2.74,0.3789 4.65,2.9102 4.26,5.6407"
         style="fill:#100f0d;fill-opacity:1;fill-rule:nonzero;stroke:none"
         id="path20" />
      <path
         d="m 1229.95,658.988 c -9.33,18.332 -18.98,36.223 -28.87,53.774 -7.8,-38.102 -10.63,-76.571 -5.34,-113.133 3.92,-27.149 -39.75,-38.641 -43.65,-11.609 -8.25,57.031 0.99,117.941 18.36,176.3 -51.6,82.489 -109.72,154.328 -173.442,211.508 -3.961,-51.117 -7.77,-102.238 -7.457,-152.969 0.074,-11.718 -5.805,-23.39 -18.84,-26.847 -10.695,-2.832 -24.738,3.57 -24.813,15.25 -0.402,65.949 5.485,132.359 10.223,198.718 -82.844,63.79 -174.152,103.24 -272.019,110.57 -62.68,4.69 -130.481,-5.18 -191.961,-62.07 -61.481,-56.87 -113.676,-171.519 -108.907,-274.679 3.227,-69.86 31.274,-122.473 65.825,-153.832 34.55,-31.367 75.507,-44.739 115.273,-60.578 15.918,-6.34 31.711,-13.161 47.379,-20.403 14.031,4.121 28.047,8.282 42.016,12.391 84.468,24.82 170.433,47.402 255.793,45.68 28.027,-0.559 22.171,-44.207 -5.856,-43.649 -79.687,1.602 -158.355,-19.101 -236.984,-41.961 95.715,-51.621 186.129,-120.328 269.902,-204.219 37.008,16.782 74.678,31.231 113.948,40.051 28.24,6.348 34.17,-35.75 5.97,-42.09 -30.65,-6.882 -60.32,-17.269 -89.496,-29.441 C 1043.04,204.629 1113.24,110.699 1176.34,5.05078 h 268.71 C 1393.68,245.648 1325.68,471 1229.95,658.988"
         style="fill:#3899a9;fill-opacity:1;fill-rule:nonzero;stroke:none"
         id="path22" />
      <path
         d="M 1353.85,49.8789 C 1220.65,427.25 1012.29,715.422 758.863,870.238 c -71.496,43.672 -146.57,76.66 -224.336,97.91 -2.664,0.731 -5.414,-0.839 -6.14,-3.5 -0.731,-2.668 0.84,-5.418 3.504,-6.148 76.804,-20.988 151.007,-53.578 221.757,-96.789 250.792,-153.152 458.142,-439.32 590.772,-815.1602 0.92,-2.6094 3.78,-3.9727 6.38,-3.0508 2.6,0.9102 3.97,3.7695 3.05,6.3711"
         style="fill:#100f0d;fill-opacity:1;fill-rule:nonzero;stroke:none"
         id="path24" />
      <path
         d="m 2366.74,608.559 c -8.14,-9.637 -20.83,-14.227 -30.91,-7.829 -8.8,5.59 -11.95,20.239 -3.83,29.86 18.51,21.961 37.37,43.621 56.42,65.101 6.83,79.258 11.56,158.36 13.81,237.129 2.47,86.26 1.73,172.16 -2.27,256.69 -18.87,-37.01 -36.49,-74.59 -54.02,-112.08 -12.41,-26.56 -53.02,-15.11 -40.53,11.6 28.14,60.22 56.64,120.88 89.84,179.17 -12.54,171.99 -39.36,336.68 -82.31,484.62 -16.48,-34.27 -31.67,-69.02 -44.99,-104.41 -10.29,-27.34 -50.81,-15.7 -40.54,11.6 19.26,51.16 42.24,101.19 67.8,150.2 -26.85,81.58 -58.94,157.41 -96.67,225.63 -43.39,78.48 -96.51,148.45 -164.53,164.09 -68.02,15.64 -153.24,-37.27 -192.5,-145.78 -21.79,-60.22 -26.7,-128.51 -21.17,-190.8 63.94,-9.78 127.76,-19.93 190.52,-33.55 26.74,-5.8 9.39,-47.87 -17.25,-42.09 -55.1,11.95 -111.02,21.24 -167.12,29.94 12.3,-69.55 35.61,-129.6 57.24,-190.57 36.95,-104.2 69.09,-213.77 96.4,-327.62 50.77,-12.59 99.79,-28.63 141.39,-60.01 20.95,-15.79 -5.98,-53.6 -27.09,-37.68 -30.71,23.15 -65.94,37.92 -103.03,49.23 31.76,-140.88 56.14,-288.051 73.07,-439.609 27.18,-18.129 54.66,-35.86 82.73,-52.762 22.75,-13.68 -4.35,-51.367 -27.08,-37.688 -16.67,10.028 -33.13,20.36 -49.49,30.84 23.63,-240.992 28.63,-492.269 13.98,-746.73022 h 197.83 c 43.45,205.85922 78.37,413.87122 99.41,621.14822 -5.03,-5.879 -10.12,-11.719 -15.11,-17.64"
         style="fill:#3899a9;fill-opacity:1;fill-rule:nonzero;stroke:none"
         id="path26" />
      <path
         d="m 2223.21,46.5 c 34.1,217.031 50.17,435.738 50.17,649.91 -0.01,507.11 -90.08,988.7 -244.45,1362.16 -1.05,2.55 -3.98,3.76 -6.53,2.71 -2.55,-1.06 -3.76,-3.98 -2.71,-6.53 153.76,-371.93 243.7,-852.42 243.69,-1358.34 0,-213.672 -16.03,-431.871 -50.05,-648.3592 -0.43,-2.7305 1.43,-5.2891 4.16,-5.7227 2.73,-0.4179 5.29,1.4414 5.72,4.1719"
         style="fill:#100f0d;fill-opacity:1;fill-rule:nonzero;stroke:none"
         id="path28" />
      <path
         d="M 6369.33,961.582 H 3969.12 c -36.35,0 -57.16,29.457 -46.49,65.808 l 294.85,1357.73 c 10.66,36.34 48.78,65.81 85.12,65.81 h 2400.22 c 36.35,0 57.16,-29.47 46.48,-65.81 L 6454.46,1027.39 c -10.67,-36.351 -48.78,-65.808 -85.13,-65.808"
         style="fill:#100f0d;fill-opacity:1;fill-rule:nonzero;stroke:none"
         id="path30" />
      <path
         d="M 5387.97,1384.28 H 5202.92 V 597.121 h 185.05 v 787.159"
         style="fill:#100f0d;fill-opacity:1;fill-rule:nonzero;stroke:none"
         id="path32" />
      <path
         d="m 4605.95,597.121 v -67.242 h 985.41 v 67.242 h -985.41"
         style="fill:#100f0d;fill-opacity:1;fill-rule:nonzero;stroke:none"
         id="path34" />
      <path
         d="M 6317.39,961.582 H 3917.17 c -36.34,0 -57.15,29.457 -46.48,65.808 l 294.83,1357.73 c 10.68,36.34 48.79,65.81 85.14,65.81 h 2400.22 c 36.34,0 57.15,-29.47 46.48,-65.81 L 6402.52,1027.39 c -10.68,-36.351 -48.79,-65.808 -85.13,-65.808"
         style="fill:#303a7a;fill-opacity:1;fill-rule:nonzero;stroke:none"
         id="path36" />
      <path
         d="M 6276.38,996.52 H 3978.71 c -34.8,0 -54.73,28.21 -44.5,63.01 l 275.96,1293.45 c 10.22,34.79 46.7,62.99 81.5,62.99 h 2297.67 c 34.8,0 54.72,-28.2 44.5,-62.99 L 6357.88,1059.53 c -10.22,-34.8 -46.7,-63.01 -81.5,-63.01"
         style="fill:#ffffff;fill-opacity:1;fill-rule:nonzero;stroke:none"
         id="path38" />
      <path
         d="m 4981.82,2748.14 251.18,21.26 -99.65,-250.92 h -75.19 l -76.34,229.66"
         style="fill:#100f0d;fill-opacity:1;fill-rule:nonzero;stroke:none"
         id="path40" />
      <path
         d="m 5482.48,3332.92 c -4.53,-237.61 21.77,-475.79 78.04,-706.68 -148.48,-98.68 -323.93,-182.68 -492.22,-241.52 57.94,246.45 86.92,500.62 78.39,753.64 99.1,94.51 204.61,155.2 335.79,194.56"
         style="fill:#f68559;fill-opacity:1;fill-rule:nonzero;stroke:none"
         id="path42" />
      <path
         d="m 5146.69,3138.36 c 85.3,81.35 175.4,137.59 282.47,176.79 -29.8,-183.74 -133.55,-348.31 -286.98,-441.15 5.79,88.01 7.47,176.25 4.51,264.36"
         style="fill:#100f0d;fill-opacity:1;fill-rule:nonzero;stroke:none"
         id="path44" />
      <path
         d="m 4854.66,3426.81 c -15.73,-67.86 12.66,-132.41 63.4,-144.17 50.74,-11.76 104.62,33.73 120.35,101.59 15.73,67.86 -12.65,132.4 -63.39,144.17 -50.75,11.75 -104.63,-33.72 -120.36,-101.59"
         style="fill:#100f0d;fill-opacity:1;fill-rule:nonzero;stroke:none"
         id="path46" />
      <path
         d="m 4948.01,3533.58 c -29.35,40.85 -222.35,50.14 -55.56,295.7 48.03,70.71 202.85,95.47 268.94,108.1 142.99,27.33 441.06,-43.39 455.28,-203.58 21.71,-244.55 -146.37,-415.07 -167.02,-452.88 -201.18,-4.21 -390.96,98.67 -501.64,252.66"
         style="fill:#be2e22;fill-opacity:1;fill-rule:nonzero;stroke:none"
         id="path48" />
      <path
         d="m 4977.27,3707.08 c 107.05,72.53 364.61,22.17 438,-13.81 -5.9,-45.37 -20.45,-121.82 -20.45,-121.82 l 46.52,-151.46 c 0,0 98.05,56.73 141.67,23.28 81.8,-62.71 -45.6,-236.94 -144.48,-188.96 -4.49,2.19 -59.58,-233.57 -323.35,-260.57 -104.82,-10.73 -164.86,29.92 -176.95,150.18 -18.41,183.14 -12.49,357.66 39.04,563.16"
         style="fill:#f68559;fill-opacity:1;fill-rule:nonzero;stroke:none"
         id="path50" />
      <path
         d="m 5255.42,3206.76 c -19.83,-27.92 -42.61,-51.78 -73.3,-69.38 -27.19,-15.59 -58.67,-26.66 -89.6,-21.67 -2.76,0.44 -5.48,1.19 -8.2,2.07 28.2,57.79 106.48,94.54 171.1,88.98"
         style="fill:#941a1f;fill-opacity:1;fill-rule:nonzero;stroke:none"
         id="path52" />
      <path
         d="m 5030.58,3186.05 c 82.23,4.03 163.89,19.7 241.77,46.4 -5.46,-8.9 -11.08,-17.45 -16.93,-25.69 -64.62,5.56 -142.9,-31.19 -171.1,-88.98 -27.73,9.03 -52.21,39.76 -53.74,68.27"
         style="fill:#491518;fill-opacity:1;fill-rule:nonzero;stroke:none"
         id="path54" />
      <path
         d="m 5089.12,3260.77 c -12.07,2.94 -23.75,5.91 -33.77,12.16 -9.95,6.2 -18.54,16.36 -21.08,28.78 v 0 c -0.6,2.91 -0.87,5.85 -0.88,8.82 -0.03,13.08 5.46,26.94 11.17,40.07 13.84,31.95 27.68,63.9 41.52,95.84 1.1,2.54 -0.07,5.48 -2.6,6.58 -2.54,1.1 -5.48,-0.07 -6.58,-2.6 -13.84,-31.95 -27.67,-63.9 -41.51,-95.84 -5.73,-13.3 -11.96,-28.24 -11.99,-44.05 -0.01,-3.58 0.33,-7.21 1.07,-10.84 h 0.01 c 3.27,-15.73 13.76,-27.87 25.59,-35.24 11.78,-7.32 24.61,-10.42 36.68,-13.39 2.68,-0.66 5.39,0.99 6.04,3.67 0.66,2.68 -0.98,5.39 -3.67,6.04"
         style="fill:#100f0d;fill-opacity:1;fill-rule:nonzero;stroke:none"
         id="path56" />
      <path
         d="m 5574.74,3385.54 0.1,2.54 c -0.02,10.3 -5.11,19.5 -12.43,26.07 -7.34,6.57 -17.03,10.75 -27.13,10.84 h -0.31 c -10.18,0 -19.74,-3.5 -27.89,-9.02 -8.16,-5.53 -14.98,-13.07 -19.86,-21.53 -9.69,-16.83 -12.47,-36.15 -13.58,-54.54 -0.11,-1.87 0.83,-3.65 2.44,-4.6 1.6,-0.95 3.62,-0.93 5.21,0.06 2.66,1.67 5.77,2.48 9.06,2.48 4.33,0.01 8.91,-1.45 12.55,-3.99 3.66,-2.53 6.31,-6.02 7.34,-10.03 0.33,-1.28 0.49,-2.59 0.49,-3.91 0.02,-4.89 -2.26,-10.09 -5.96,-13.95 -3.69,-3.88 -8.59,-6.27 -13.45,-6.25 l -0.86,0.02 c -2.76,0.16 -5.12,-1.95 -5.27,-4.71 -0.16,-2.76 1.95,-5.12 4.71,-5.27 l 1.42,-0.04 c 8.12,0.01 15.42,3.83 20.69,9.35 5.27,5.55 8.7,12.94 8.72,20.85 0,2.12 -0.25,4.28 -0.8,6.41 -1.73,6.69 -6.03,12.08 -11.34,15.75 -5.33,3.68 -11.73,5.76 -18.24,5.77 -4.93,0 -9.95,-1.23 -14.38,-4.01 l 2.66,-4.23 4.99,-0.3 c 1.05,17.82 3.82,35.56 12.26,50.15 4.14,7.18 10.01,13.65 16.8,18.24 6.8,4.6 14.43,7.3 22.29,7.3 h 0.24 c 7.31,-0.03 14.91,-3.22 20.52,-8.28 5.63,-5.07 9.12,-11.76 9.11,-18.63 l -0.07,-1.71 c -0.23,-2.76 1.82,-5.17 4.57,-5.4 2.75,-0.23 5.17,1.82 5.4,4.57"
         style="fill:#100f0d;fill-opacity:1;fill-rule:nonzero;stroke:none"
         id="path58" />
      <path
         d="m 5202.93,3440.59 c 8.3,-16.61 28.49,-23.35 45.1,-15.05 16.61,8.3 23.35,28.49 15.05,45.1 -8.29,16.61 -28.48,23.35 -45.1,15.06 -16.61,-8.3 -23.34,-28.5 -15.05,-45.11"
         style="fill:#100f0d;fill-opacity:1;fill-rule:nonzero;stroke:none"
         id="path60" />
      <path
         d="m 4964.68,3440.59 c 8.3,-16.61 28.5,-23.35 45.11,-15.05 16.61,8.3 23.35,28.49 15.06,45.1 -8.3,16.61 -28.5,23.35 -45.11,15.06 -16.61,-8.3 -23.35,-28.5 -15.06,-45.11"
         style="fill:#100f0d;fill-opacity:1;fill-rule:nonzero;stroke:none"
         id="path62" />
      <path
         d="m 5331,3544.55 c -20.75,14.79 -61.6,39.65 -108.76,39.8 -14.36,0 -29.28,-2.39 -44.08,-8.23 -5.14,-2.02 -7.67,-7.83 -5.64,-12.97 2.02,-5.13 7.83,-7.66 12.97,-5.63 12.27,4.83 24.59,6.83 36.75,6.83 39.81,0.15 78.1,-22.28 97.09,-36.04 4.48,-3.23 10.73,-2.2 13.95,2.28 3.23,4.49 2.2,10.74 -2.28,13.96"
         style="fill:#100f0d;fill-opacity:1;fill-rule:nonzero;stroke:none"
         id="path64" />
      <path
         d="m 5063.56,3567.92 c -13.7,8.77 -29.63,12.9 -45.47,12.9 -23.1,-0.02 -46.35,-8.73 -62.78,-25.91 -3.81,-4 -3.66,-10.33 0.34,-14.14 3.99,-3.81 10.32,-3.66 14.13,0.34 12.07,12.71 30.22,19.74 48.31,19.71 12.38,0.01 24.56,-3.25 34.67,-9.74 4.65,-2.98 10.84,-1.63 13.82,3.02 2.98,4.65 1.63,10.84 -3.02,13.82"
         style="fill:#100f0d;fill-opacity:1;fill-rule:nonzero;stroke:none"
         id="path66" />
      <path
         d="m 5422.97,3373.46 c -15.72,-67.86 12.66,-132.4 63.4,-144.16 50.75,-11.76 104.63,33.72 120.35,101.58 15.74,67.86 -12.65,132.41 -63.39,144.17 -50.75,11.76 -104.62,-33.72 -120.36,-101.59"
         style="fill:#100f0d;fill-opacity:1;fill-rule:nonzero;stroke:none"
         id="path68" />
      <path
         d="m 5141.31,3947.42 c 104.38,39.36 221.71,19.25 306.24,-53.8 82.39,-71.21 114.65,-180.55 119.17,-286.12 3.03,-70.74 -5.64,-141.28 -14.24,-211.35 -2.22,-18.07 -30.65,-16.55 -28.4,1.69 13.3,108.27 27,220.28 -4.24,326.84 -27.65,94.35 -94.32,172.98 -189.73,202.75 -56.98,17.78 -119.85,15.79 -175.7,-5.26 -16.94,-6.39 -30.19,18.81 -13.1,25.25"
         style="fill:#100f0d;fill-opacity:1;fill-rule:nonzero;stroke:none"
         id="path70" />
      <path
         d="m 4927.13,3132.47 c 0.51,4.92 2.22,9.44 5.12,13.57 2.09,2.46 4.18,4.93 6.28,7.39 5.07,4.59 10.95,7.6 17.65,9.05 3.38,0.25 6.76,0.51 10.13,0.77 6.66,-0.43 12.8,-2.45 18.4,-6.06 2.88,-1.73 5.76,-3.46 8.65,-5.19 4.33,-2.59 7.73,-6.03 10.21,-10.31 3.26,-3.93 5.34,-8.46 6.23,-13.61 1.28,-5.07 1.22,-10.06 -0.16,-14.97 -0.51,-4.92 -2.22,-9.44 -5.13,-13.57 -2.09,-2.47 -4.18,-4.93 -6.27,-7.4 -5.08,-4.58 -10.96,-7.6 -17.65,-9.04 -3.38,-0.26 -6.77,-0.51 -10.14,-0.77 -6.66,0.43 -12.8,2.44 -18.4,6.06 -2.88,1.73 -5.76,3.46 -8.65,5.19 -4.33,2.59 -7.73,6.02 -10.2,10.3 -3.26,3.93 -5.34,8.47 -6.24,13.62 -1.27,5.06 -1.22,10.05 0.17,14.97"
         style="fill:#100f0d;fill-opacity:1;fill-rule:nonzero;stroke:none"
         id="path72" />
      <path
         d="m 4255.13,991.789 h 1916.83 c -7.1,251.841 86.26,1409.231 30.7,1498.531 -58.98,94.81 -162.39,155.13 -270,184.95 -107.61,29.82 -220.59,32.5 -332.23,35 -8.01,33.21 -7.24,58.84 -15.25,92.05 -128.11,-28.04 -251.37,-54.64 -379.49,-82.68 -25.6,-60.98 -42.38,-110.86 -67.98,-171.84 -9.31,0 -25.28,-0.54 -34.59,-0.54 -7.99,51.82 -19,107.78 -27,159.6 -21.29,7.89 -73.01,33.39 -94.3,41.28 -1.18,-22.6 -10.4,-93.03 -10.4,-93.03 -106.92,-13.1 -177.63,-4.34 -284.57,-17.43 -43.84,-5.37 -224.33,-81.19 -259.25,-221.71 -11.99,-48.28 -172.47,-1424.181 -172.47,-1424.181"
         style="fill:#5761b6;fill-opacity:1;fill-rule:nonzero;stroke:none"
         id="path74" />
      <path
         d="m 5226.42,2699.12 c 5.88,-70.48 11.76,-140.96 17.63,-211.43 0.14,-1.77 1.2,-3.31 2.79,-4.08 1.6,-0.78 3.46,-0.66 4.94,0.32 109.12,71.89 225.87,143.48 335.18,215.49 2.3,1.52 2.94,4.62 1.42,6.93 -1.52,2.3 -4.62,2.94 -6.93,1.42 -109.11,-71.89 -225.87,-143.48 -335.17,-215.49 l 2.75,-4.18 4.98,0.42 c -5.87,70.47 -11.75,140.95 -17.62,211.43 -0.23,2.75 -2.65,4.8 -5.4,4.57 -2.76,-0.23 -4.8,-2.65 -4.57,-5.4"
         style="fill:#100f0d;fill-opacity:1;fill-rule:nonzero;stroke:none"
         id="path76" />
      <path
         d="m 5062.48,2706.65 c -12.46,-57.09 -24.92,-114.18 -37.38,-171.27 l 4.89,-1.07 4.46,2.25 c -19.52,38.64 -39.04,77.28 -58.56,115.92 -1.25,2.46 -4.26,3.45 -6.72,2.21 -2.47,-1.25 -3.46,-4.26 -2.21,-6.72 19.52,-38.64 39.04,-77.28 58.56,-115.92 0.96,-1.88 3,-2.97 5.1,-2.7 2.09,0.27 3.8,1.83 4.25,3.89 12.46,57.09 24.92,114.18 37.38,171.28 0.59,2.7 -1.12,5.36 -3.81,5.95 -2.7,0.59 -5.37,-1.12 -5.96,-3.82"
         style="fill:#100f0d;fill-opacity:1;fill-rule:nonzero;stroke:none"
         id="path78" />
      <path
         d="m 5103.77,2515.78 c -70.17,-513.47 -78.18,-974.52 -124.49,-1524.659 -0.23,-2.75 1.81,-5.172 4.56,-5.402 2.76,-0.231 5.17,1.812 5.41,4.562 46.33,550.549 54.35,1011.409 124.43,1524.149 0.37,2.73 -1.54,5.26 -4.28,5.63 -2.73,0.37 -5.25,-1.54 -5.63,-4.28"
         style="fill:#100f0d;fill-opacity:1;fill-rule:nonzero;stroke:none"
         id="path80" />
      <path
         d="m 4545.97,991.379 c 41.39,504.701 85,1049.001 85,1049.001 0.22,2.75 -1.84,5.16 -4.59,5.38 -2.75,0.22 -5.16,-1.83 -5.38,-4.58 0,-0.03 -0.68,-8.51 -1.96,-24.37 -8.91,-111.08 -46.82,-583.01 -83.04,-1024.619 -0.23,-2.75 1.82,-5.16 4.57,-5.39 2.76,-0.219 5.17,1.82 5.4,4.578"
         style="fill:#100f0d;fill-opacity:1;fill-rule:nonzero;stroke:none"
         id="path82" />
      <path
         d="m 5655.46,991.379 c 41.4,504.701 85,1049.001 85,1049.001 0.22,2.75 -1.83,5.16 -4.59,5.38 -2.75,0.22 -5.16,-1.83 -5.38,-4.58 0,-0.03 -0.68,-8.51 -1.95,-24.37 -8.91,-111.08 -46.82,-583.01 -83.05,-1024.619 -0.23,-2.75 1.82,-5.16 4.58,-5.39 2.75,-0.219 5.16,1.82 5.39,4.578"
         style="fill:#100f0d;fill-opacity:1;fill-rule:nonzero;stroke:none"
         id="path84" />
      <path
         d="m 4957.16,3125.67 c -21.99,4.21 -44.22,7.79 -66.06,12.74 -8.25,1.87 -17.02,4.35 -23.47,10.1 -8.17,7.28 -9.13,17.96 -7.05,28.16 2.21,10.8 6.96,20.95 11.13,31.09 4.36,10.6 8.72,21.2 13.07,31.8 9.03,21.95 18.07,43.91 27.09,65.86 2.43,5.92 -6.42,10.56 -8.88,4.61 -15.46,-37.61 -31.58,-75.01 -46.38,-112.87 -5.85,-14.97 -10.97,-32.54 -2.56,-47.57 7.24,-12.95 22.2,-18.15 35.86,-21.16 21.58,-4.75 43.47,-8.39 65.17,-12.54 6.32,-1.21 8.42,8.57 2.08,9.78"
         style="fill:#100f0d;fill-opacity:1;fill-rule:nonzero;stroke:none"
         id="path86" />
      <path
         d="m 5650.47,1897.06 h -386.84 v 58.1 h 386.84 v -58.1"
         style="fill:#ffffff;fill-opacity:1;fill-rule:nonzero;stroke:none"
         id="path88" />
      <path
         d="M 4556.34,3465.42 H 3368.98 c -31.55,0 -57.13,25.57 -57.13,57.13 v 204.31 c 0,31.55 25.58,57.12 57.13,57.12 h 1187.36 c 31.55,0 57.12,-25.57 57.12,-57.12 v -204.31 c 0,-31.56 -25.57,-57.13 -57.12,-57.13"
         style="fill:#5761b6;fill-opacity:1;fill-rule:nonzero;stroke:none"
         id="path90" />
      <path
         d="m 4495.87,3489.25 271.87,-156.33 -187.69,233.51 z"
         style="fill:#5761b6;fill-opacity:1;fill-rule:nonzero;stroke:none"
         id="path92" />
      <path
         d="m 3683.73,3672.02 h 825.74 c 2.76,0 5,2.24 5,5 0,2.76 -2.24,5 -5,5 h -825.74 c -2.76,0 -5,-2.24 -5,-5 0,-2.76 2.24,-5 5,-5"
         style="fill:#ffffff;fill-opacity:1;fill-rule:nonzero;stroke:none"
         id="path94" />
      <path
         d="m 3683.73,3627.03 h 825.74 c 2.76,0 5,2.24 5,5 0,2.76 -2.24,5 -5,5 h -825.74 c -2.76,0 -5,-2.24 -5,-5 0,-2.76 2.24,-5 5,-5"
         style="fill:#ffffff;fill-opacity:1;fill-rule:nonzero;stroke:none"
         id="path96" />
      <path
         d="m 3683.73,3582.04 h 507.67 c 2.76,0 5,2.24 5,5 0,2.76 -2.24,5 -5,5 h -507.67 c -2.76,0 -5,-2.24 -5,-5 0,-2.76 2.24,-5 5,-5"
         style="fill:#ffffff;fill-opacity:1;fill-rule:nonzero;stroke:none"
         id="path98" />
      <path
         d="m 3430.01,3742.36 c 4.33,-0.91 8.66,-1.8 12.79,-3.49 5.52,-2.24 10.64,-5.14 15.22,-8.93 5.59,-4.61 8.23,-10.87 9.37,-17.8 0.89,-5.4 1.48,-10.85 2.16,-16.27 0.34,-2.66 1.59,-4.77 3.47,-6.64 11.82,-11.82 23.57,-23.69 35.42,-35.48 1.3,-1.29 1.34,-1.93 0,-3.19 -3.41,-3.22 -6.67,-6.6 -9.92,-9.98 -0.76,-0.8 -1.48,-0.96 -2.5,-0.71 -9.91,2.47 -19.26,1.14 -27.92,-4.36 -1.2,-0.77 -1.69,0.14 -2.32,0.77 -7.29,7.33 -14.7,14.54 -21.8,22.05 -3.13,3.3 -6.85,4.45 -11.1,4.88 -5.37,0.54 -10.76,1.01 -16.03,2.28 -7.74,1.86 -13.42,6.45 -17.63,13.07 -4.18,6.59 -7.31,13.62 -8.65,21.32 -0.64,3.65 -0.87,7.4 0.45,11.3 4.73,-4.72 9.38,-9.36 14.02,-14 1.99,-1.99 4.23,-3.58 6.8,-4.75 13.96,-6.32 30.12,4.42 29.76,19.74 -0.14,6.01 -2.33,11.05 -6.55,15.26 -4.57,4.56 -9.13,9.12 -13.75,13.73 0.97,1.11 2.43,0.52 3.42,1.2 1.77,0 3.53,0 5.29,0"
         style="fill:#ffffff;fill-opacity:1;fill-rule:nonzero;stroke:none"
         id="path100" />
      <path
         d="m 3399.25,3545.67 c 0.09,7.61 2.62,14.33 8,19.75 19.63,19.77 39.35,39.44 58.98,59.19 5.97,6.01 13.05,9.24 21.56,9.09 3.39,-0.06 6.69,-0.73 9.79,-2.11 1.19,-0.53 1.91,-0.42 2.84,0.52 16.44,16.52 32.93,33.01 49.4,49.5 2.03,2.04 2.68,4.81 3.88,7.29 2.18,4.54 4.27,9.11 6.31,13.71 0.47,1.05 1.12,1.82 2.06,2.45 10.94,7.3 21.9,14.6 32.8,21.96 1.2,0.81 1.88,0.83 2.91,-0.23 3.46,-3.59 6.99,-7.1 10.56,-10.59 0.9,-0.87 0.97,-1.44 0.23,-2.54 -7.39,-11.02 -14.71,-22.09 -22.03,-33.17 -0.68,-1.04 -1.62,-1.63 -2.7,-2.13 -5.82,-2.68 -11.63,-5.4 -17.47,-8.05 -1.42,-0.65 -2.64,-1.5 -3.74,-2.61 -16.18,-16.26 -32.37,-32.51 -48.6,-48.72 -1.02,-1.02 -1.25,-1.81 -0.74,-3.18 4.38,-11.81 2.01,-22.29 -6.78,-31.17 -19.5,-19.7 -39.08,-39.3 -58.71,-58.86 -7.97,-7.95 -17.6,-10.55 -28.41,-7.32 -10.63,3.19 -17,10.63 -19.62,21.33 -0.27,1.06 -0.4,2.16 -0.51,3.25 l -0.01,2.64"
         style="fill:#ffffff;fill-opacity:1;fill-rule:nonzero;stroke:none"
         id="path102" />
      <path
         d="m 3573.8,3540.38 c 9.48,-0.06 17.57,7.46 17.71,17.69 0.12,10.08 -8.12,18.09 -18.16,18.03 -9.8,-0.06 -17.47,-8.18 -17.44,-18.46 0.03,-9.47 8.16,-17.31 17.89,-17.26 z m -0.23,-22.9 c -20.62,-0.09 -37.42,15.47 -40.18,35.11 -0.73,5.13 -0.92,10.33 -2.02,15.41 -0.48,2.22 -1.44,4.04 -3.1,5.64 -3.6,3.44 -7.04,7.05 -10.62,10.52 -0.84,0.82 -0.9,1.39 -0.29,2.37 5.31,8.67 6.54,17.98 4.16,27.79 -0.26,1.11 -0.01,1.72 0.71,2.44 3.44,3.4 6.9,6.78 10.24,10.28 1.12,1.18 1.72,0.95 2.74,-0.08 7.51,-7.61 15.21,-15.05 22.57,-22.8 3.16,-3.33 7.05,-3.88 11.11,-4.29 9.26,-0.92 18.46,-1.9 26.53,-7.25 11.17,-7.42 17.69,-17.68 18.62,-31.11 1.21,-17.34 -6.09,-30.33 -20.96,-39.14 -5.53,-3.27 -12.66,-4.94 -19.51,-4.89"
         style="fill:#ffffff;fill-opacity:1;fill-rule:nonzero;stroke:none"
         id="path104" />
      <path
         d="M 634.473,5.05078 H 542.375 L 638.98,493.18 h 92.106 L 634.473,5.05078"
         style="fill:#f57f13;fill-opacity:1;fill-rule:nonzero;stroke:none"
         id="path106" />
      <path
         d="m 2432.28,5.05078 h -92.1 l 96.6,488.12922 h 92.11 L 2432.28,5.05078"
         style="fill:#f57f13;fill-opacity:1;fill-rule:nonzero;stroke:none"
         id="path108" />
      <path
         d="m 7053.59,5.05078 h 92.1 L 7049.09,493.18 h -92.11 L 7053.59,5.05078"
         style="fill:#f57f13;fill-opacity:1;fill-rule:nonzero;stroke:none"
         id="path110" />
      <path
         d="m 5255.79,5.05078 h 92.1 L 5251.29,493.18 h -92.1 l 96.6,-488.12922"
         style="fill:#f57f13;fill-opacity:1;fill-rule:nonzero;stroke:none"
         id="path112" />
      <path
         d="M 397.887,439.199 H 7273.41 c 19.56,0 35.42,15.86 35.42,35.422 v 19.84 c 0,19.559 -15.86,35.418 -35.42,35.418 H 397.887 c -19.555,0 -35.414,-15.859 -35.414,-35.418 v -19.84 c 0,-19.562 15.859,-35.422 35.414,-35.422"
         style="fill:#100f0d;fill-opacity:1;fill-rule:nonzero;stroke:none"
         id="path114" />
      <path
         d="M 3945.93,623.141 3356.96,564.02 v -34.141 h 1591.57 v 93.262 h -1002.6"
         style="fill:#100f0d;fill-opacity:1;fill-rule:nonzero;stroke:none"
         id="path116" />
      <path
         d="m 4359.55,564.02 v -34.141 h 588.98 v 93.262 L 4359.55,564.02"
         style="fill:#303a7a;fill-opacity:1;fill-rule:nonzero;stroke:none"
         id="path118" />
      <path
         d="m 2569.63,3403.33 c 0,-218.15 -176.84,-394.99 -394.99,-394.99 -218.15,0 -394.99,176.84 -394.99,394.99 0,218.15 176.84,394.99 394.99,394.99 218.15,0 394.99,-176.84 394.99,-394.99"
         style="fill:#100f0d;fill-opacity:1;fill-rule:nonzero;stroke:none"
         id="path120" />
      <path
         d="m 2099.02,3520.12 c 0,-17.48 -21.06,-33.4 -23.26,-50.28 -2.25,-17.27 13.96,-38.07 9.55,-54.56 -4.49,-16.79 -28.95,-26.71 -35.51,-42.53 -6.63,-16 3.6,-40.31 -4.99,-55.17 -8.66,-14.96 -34.86,-18.2 -45.34,-31.83 -10.51,-13.69 -6.9,-39.82 -19.08,-52.01 -12.19,-12.18 -38.32,-8.57 -52,-19.08 -13.64,-10.48 -16.88,-36.67 -31.84,-45.33 -14.86,-8.59 -39.17,1.64 -55.17,-4.99 -15.81,-6.56 -25.74,-31.02 -42.52,-35.5 -16.49,-4.41 -37.29,11.79 -54.56,9.54 -16.88,-2.2 -32.8,-23.25 -50.28,-23.25 -17.48,0 -33.4,21.05 -50.27,23.25 -17.28,2.25 -38.08,-13.95 -54.57,-9.54 -16.79,4.48 -26.71,28.94 -42.53,35.5 -16,6.63 -40.31,-3.6 -55.17,5 -14.96,8.66 -18.2,34.85 -31.84,45.33 -13.68,10.51 -39.81,6.91 -52,19.08 -12.18,12.19 -8.57,38.32 -19.08,52 -10.48,13.64 -36.67,16.88 -45.33,31.84 -8.59,14.86 1.64,39.17 -4.99,55.17 -6.56,15.82 -31.02,25.74 -35.5,42.52 -4.41,16.49 11.79,37.29 9.54,54.56 -2.2,16.88 -23.25,32.8 -23.25,50.28 0,17.48 21.05,33.4 23.25,50.28 2.25,17.27 -13.95,38.07 -9.54,54.57 4.48,16.78 28.94,26.7 35.5,42.52 6.63,16 -3.6,40.31 5,55.17 8.66,14.96 34.85,18.2 45.33,31.84 10.51,13.68 6.91,39.82 19.08,52 12.19,12.18 38.32,8.57 52,19.08 13.64,10.48 16.88,36.67 31.85,45.33 14.85,8.6 39.16,-1.64 55.16,5 15.82,6.55 25.74,31.01 42.52,35.5 16.5,4.41 37.29,-11.8 54.56,-9.55 16.88,2.2 32.8,23.26 50.28,23.26 17.48,0 33.4,-21.06 50.28,-23.26 17.27,-2.25 38.07,13.96 54.57,9.55 16.78,-4.49 26.7,-28.95 42.52,-35.51 16,-6.63 40.31,3.6 55.17,-4.99 14.96,-8.66 18.2,-34.86 31.84,-45.34 13.68,-10.51 39.82,-6.9 52,-19.08 12.18,-12.19 8.57,-38.32 19.08,-52 10.48,-13.64 36.67,-16.88 45.33,-31.84 8.6,-14.86 -1.64,-39.17 5,-55.17 6.55,-15.81 31.01,-25.74 35.5,-42.52 4.41,-16.49 -11.8,-37.29 -9.55,-54.56 2.2,-16.88 23.26,-32.8 23.26,-50.28"
         style="fill:#100f0d;fill-opacity:1;fill-rule:nonzero;stroke:none"
         id="path122" />
      <path
         d="m 2202.49,3117.38 -269.95,-881.72 c 145.62,-80.46 193.97,-126.12 339.59,-206.58 65.44,293.17 110.2,585.55 175.65,878.73 -61.5,78.09 -183.79,131.48 -245.29,209.57"
         style="fill:#e4541f;fill-opacity:1;fill-rule:nonzero;stroke:none"
         id="path124" />
      <path
         d="m 2412.86,2742.31 c 11.13,55.15 22.6,110.31 34.92,165.5 -61.5,78.09 -139.32,147.76 -200.83,225.85 -0.82,-1.73 -1.65,-3.46 -2.48,-5.19 4.5,-47.44 9.8,-96.1 16.1,-145.25 29.64,-90.29 83.6,-173.15 152.29,-240.91"
         style="fill:#100f0d;fill-opacity:1;fill-rule:nonzero;stroke:none"
         id="path126" />
      <path
         d="m 2209.6,3284.46 c -29.24,47.82 -107.85,46.47 -144.28,3.86 -36.43,-42.61 -32.55,-109.96 -1.52,-156.66 31.02,-46.7 83.59,-75.16 137.44,-90.79 1.34,-20.76 216.34,-214.7 464.75,-212.3 37.43,0.37 42.74,71.55 42.91,94.32 0.49,66.81 0.89,84.38 1.38,151.19 20.3,9.61 94.74,50.59 80.45,67.79 -71.6,86.21 -95.7,105.58 -124.74,163.91 0,0 4.72,81.67 6.14,108.67 -38.53,83.28 -138.81,189.22 -204.27,253.52 -81.26,-22.31 -124.4,-53.23 -198.37,-93.57 12.38,-41.16 28.19,-118.78 40.57,-159.95 -46.76,-60.17 -53.7,-69.82 -100.46,-129.99"
         style="fill:#e4541f;fill-opacity:1;fill-rule:nonzero;stroke:none"
         id="path128" />
      <path
         d="m 2087.19,3249.49 c 10.63,10.74 26.04,16.63 41.35,16.62 8.54,0 17.02,-1.82 24.6,-5.55 19.13,-9.31 32.08,-30.81 32.02,-52.11 0,-2.29 -0.14,-4.57 -0.44,-6.84 l 4.95,-0.65 2.22,4.48 c -3.62,1.8 -7.53,2.6 -11.36,2.6 -7.15,-0.02 -14.06,-2.71 -19.52,-7.17 -5.44,-4.46 -9.51,-10.87 -10.21,-18.42 l -0.1,-2.23 c 0.02,-7.93 3.76,-15.06 9.15,-20.22 5.42,-5.15 12.65,-8.52 20.38,-8.54 2.26,0 4.56,0.3 6.83,0.95 2.66,0.75 4.2,3.52 3.44,6.18 -0.76,2.65 -3.52,4.19 -6.18,3.43 -1.34,-0.38 -2.71,-0.56 -4.09,-0.56 -4.7,-0.02 -9.73,2.19 -13.47,5.78 -3.76,3.58 -6.08,8.33 -6.06,12.98 l 0.06,1.32 c 0.4,4.41 2.85,8.52 6.59,11.6 3.72,3.07 8.64,4.92 13.18,4.9 2.45,0 4.79,-0.5 6.93,-1.56 1.45,-0.72 3.14,-0.69 4.57,0.07 1.43,0.76 2.39,2.15 2.6,3.76 0.36,2.71 0.53,5.43 0.53,8.14 -0.06,25.23 -14.79,49.81 -37.61,61.09 -9.07,4.45 -19.05,6.57 -29.01,6.57 -17.82,-0.01 -35.69,-6.75 -48.45,-19.57 -1.94,-1.96 -1.93,-5.13 0.03,-7.07 1.96,-1.95 5.12,-1.94 7.07,0.02"
         style="fill:#100f0d;fill-opacity:1;fill-rule:nonzero;stroke:none"
         id="path130" />
      <path
         d="m 2606.5,3324.7 c 2.54,-19.33 -8.39,-36.71 -24.43,-38.83 -16.04,-2.11 -31.1,11.84 -33.65,31.17 -2.55,19.33 8.38,36.71 24.42,38.83 16.04,2.11 31.11,-11.84 33.66,-31.17"
         style="fill:#100f0d;fill-opacity:1;fill-rule:nonzero;stroke:none"
         id="path132" />
      <path
         d="m 2467.62,3375.12 c 24.1,31.58 59.53,54.6 98.42,61.38 3.45,0.61 6.86,0.94 10.09,0.93 5.22,0.01 9.92,-0.86 13.82,-2.61 3.92,-1.78 7.16,-4.33 9.99,-8.52 3.07,-4.59 9.28,-5.83 13.87,-2.76 4.59,3.07 5.83,9.28 2.76,13.87 -4.84,7.28 -11.36,12.52 -18.44,15.67 -7.1,3.16 -14.63,4.35 -22,4.35 -4.58,0 -9.11,-0.45 -13.54,-1.23 -44.4,-7.8 -83.9,-33.65 -110.87,-68.94 -3.35,-4.39 -2.51,-10.67 1.88,-14.02 4.39,-3.35 10.66,-2.51 14.02,1.88"
         style="fill:#100f0d;fill-opacity:1;fill-rule:nonzero;stroke:none"
         id="path134" />
      <path
         d="m 2532.23,2988.7 c 9.57,17.83 30.46,28.95 50.94,28.91 7.7,0 15.3,-1.55 22.21,-4.79 12.3,-5.68 22.88,-16.39 36.41,-24.29 7.94,-4.57 17.4,-7.76 26.89,-7.78 7.08,-0.01 14.31,1.88 20.3,6.6 2.17,1.7 2.55,4.84 0.85,7.02 -1.71,2.17 -4.85,2.55 -7.02,0.84 -3.94,-3.09 -8.73,-4.45 -14.13,-4.46 -7.18,-0.02 -15.24,2.57 -21.89,6.44 -12.02,6.86 -22.74,17.85 -37.16,24.68 -8.37,3.92 -17.43,5.74 -26.46,5.74 -23.94,-0.04 -48.01,-12.61 -59.73,-34.15 -1.32,-2.43 -0.41,-5.47 2.02,-6.78 2.42,-1.31 5.46,-0.41 6.77,2.02"
         style="fill:#100f0d;fill-opacity:1;fill-rule:nonzero;stroke:none"
         id="path136" />
      <path
         d="m 3058.69,1894.52 c -133.8,-311.35 -362.44,-914.821 -358.06,-984.809 5.86,-93.602 51.34,-182.922 117.11,-218.949 65.76,-36.051 148.93,-12.891 194.12,59.609 32.73,52.527 43.65,122.301 53.54,189.059 49.89,337.09 99.79,674.19 149.68,1011.29 l -156.39,-56.2"
         style="fill:#e4541f;fill-opacity:1;fill-rule:nonzero;stroke:none"
         id="path138" />
      <path
         d="m 2700.63,909.711 c 5.86,-93.602 51.34,-182.922 117.11,-218.949 65.76,-36.051 148.93,-12.891 194.12,59.609 19.44,31.211 31.16,68.508 39.57,107.641 L 2948.91,1627.28 C 2827.43,1321.09 2697.32,962.668 2700.63,909.711"
         style="fill:#100f0d;fill-opacity:1;fill-rule:nonzero;stroke:none"
         id="path140" />
      <path
         d="m 3422.07,2021.9 c 0,0 -153.18,-24.71 -166.66,-27.8 -61.82,-14.17 -131.03,4.36 -177.62,-31.12 -28.57,-21.76 -39.17,-129.85 10.89,-160.51 90.01,-55.12 237.59,-33.59 351.12,-20.97 38.72,83.21 17.83,156.35 -17.73,240.4"
         style="fill:#e4541f;fill-opacity:1;fill-rule:nonzero;stroke:none"
         id="path142" />
      <path
         d="m 3413.88,1938.52 c 77.2,19.7 160.93,26.12 229.38,60.09 15.99,48.74 21.16,106.93 33.03,153.25 -9.24,5.76 -25.4,5.35 -35.89,1.08 -10.49,-4.27 -52.35,-80.91 -59.25,-105.59 0,0 -127.4,-22.6 -190.12,-30.13 l 22.85,-78.7"
         style="fill:#e4541f;fill-opacity:1;fill-rule:nonzero;stroke:none"
         id="path144" />
      <path
         d="m 3452.3,1894.65 c 79.75,12.11 183.89,36.87 257.26,63.99 29.6,41.27 23.79,75.87 63.65,127.26 -8.25,6.6 -24.35,7.75 -35.44,4.53 -11.1,-3.23 -19.98,-9.82 -27.88,-16.67 -21.72,-18.82 -38.61,-40.97 -49.41,-64.8 -58.56,-18.99 -190.06,-45.21 -253.51,-46.65 l 45.33,-67.66"
         style="fill:#e4541f;fill-opacity:1;fill-rule:nonzero;stroke:none"
         id="path146" />
      <path
         d="m 3420.89,1835.95 c 81.17,3.12 177.79,3.2 255.4,21.89 36.91,37.56 50.67,83.38 97.5,131.77 -6.96,7.44 -22.67,10.37 -34.24,8.41 -11.58,-1.97 -21.58,-7.5 -30.67,-13.4 -24.97,-16.21 -45.77,-36.26 -60.86,-58.65 -61.46,-12.3 -196.45,-23.66 -259.5,-18.02 l 32.37,-72"
         style="fill:#e4541f;fill-opacity:1;fill-rule:nonzero;stroke:none"
         id="path148" />
      <path
         d="m 3383.39,1778.34 c 73.05,2.32 170.01,13.34 240.02,29.69 33.57,33.57 44.93,74.28 78.97,106.44 -6.17,6.74 -20.28,9.47 -30.71,7.77 -10.44,-1.7 -19.5,-6.62 -27.73,-11.87 -22.62,-14.43 -41.53,-32.35 -55.33,-52.39 -55.41,-10.71 -176.96,-20.12 -233.64,-14.68 l 28.42,-64.96"
         style="fill:#e4541f;fill-opacity:1;fill-rule:nonzero;stroke:none"
         id="path150" />
      <path
         d="m 3703.93,1921.63 c -7.16,3.46 -15.15,4.9 -23.15,4.91 -10.68,-0.01 -21.43,-2.56 -30.64,-6.77 -15.93,-7.32 -27.53,-18.62 -38.38,-29.16 -8.76,-8.53 -17.52,-17.06 -26.28,-25.58 l 3.49,-3.59 -0.49,4.98 c -63.42,-6.27 -123.93,-12.09 -187.36,-18.35 -2.75,-0.27 -4.76,-2.72 -4.49,-5.47 0.27,-2.75 2.72,-4.75 5.47,-4.48 63.42,6.26 123.93,12.08 187.36,18.35 1.13,0.11 2.19,0.6 3,1.39 8.76,8.53 17.52,17.05 26.28,25.59 10.82,10.55 21.57,20.82 35.57,27.23 7.89,3.62 17.41,5.87 26.47,5.86 6.8,0 13.31,-1.25 18.78,-3.91 2.49,-1.21 5.48,-0.17 6.68,2.32 1.21,2.48 0.17,5.47 -2.31,6.68"
         style="fill:#100f0d;fill-opacity:1;fill-rule:nonzero;stroke:none"
         id="path152" />
      <path
         d="m 3774.07,1997.78 c -8.17,2.75 -16.75,3.97 -25.34,3.97 -20.84,-0.02 -41.76,-7.1 -57.84,-17.74 -22.51,-14.96 -36.72,-35.5 -50.09,-54.88 l 4.12,-2.83 -1.25,4.84 c -56.95,-14.71 -116.02,-23.29 -175.93,-27.35 -2.75,-0.19 -4.83,-2.58 -4.65,-5.33 0.19,-2.76 2.58,-4.84 5.33,-4.65 60.41,4.1 120.09,12.76 177.75,27.65 1.16,0.3 2.19,1.01 2.87,2 13.35,19.4 26.82,38.58 47.38,52.22 14.41,9.59 33.77,16.09 52.31,16.07 7.64,0 15.14,-1.09 22.15,-3.44 2.62,-0.88 5.46,0.52 6.34,3.14 0.88,2.62 -0.53,5.45 -3.15,6.33"
         style="fill:#100f0d;fill-opacity:1;fill-rule:nonzero;stroke:none"
         id="path154" />
      <path
         d="m 3429.94,1958.01 c 77.85,9.22 154.58,24.2 228.79,44.67 1.33,0.36 2.45,1.27 3.09,2.48 10.62,20.1 21.75,40.16 39.29,55.9 15.9,14.32 39.22,25.13 63.04,25.09 2.25,0 4.49,-0.09 6.74,-0.28 2.76,-0.24 5.18,1.8 5.42,4.55 0.23,2.75 -1.8,5.17 -4.55,5.41 -2.55,0.22 -5.08,0.32 -7.61,0.32 -26.85,-0.03 -52.11,-11.86 -69.72,-27.65 -19.12,-17.2 -30.77,-38.49 -41.45,-58.67 l 4.42,-2.33 -1.33,4.82 c -73.71,-20.33 -149.95,-35.22 -227.31,-44.38 -2.74,-0.32 -4.7,-2.81 -4.37,-5.55 0.32,-2.74 2.81,-4.7 5.55,-4.38"
         style="fill:#100f0d;fill-opacity:1;fill-rule:nonzero;stroke:none"
         id="path156" />
      <path
         d="m 3653.97,1713.59 h -299.7 c -12.32,0 -22.31,9.99 -22.31,22.32 v 652.22 c 0,12.33 9.99,22.33 22.31,22.33 h 299.7 c 12.33,0 22.32,-10 22.32,-22.33 v -652.22 c 0,-12.33 -9.99,-22.32 -22.32,-22.32"
         style="fill:#303a7a;fill-opacity:1;fill-rule:nonzero;stroke:none"
         id="path158" />
      <path
         d="m 3644.93,1735.03 h -281.61 c -12.33,0 -22.32,9.99 -22.32,22.31 v 609.36 c 0,12.32 9.99,22.31 22.32,22.31 h 281.61 c 12.32,0 22.31,-9.99 22.31,-22.31 v -609.36 c 0,-12.32 -9.99,-22.31 -22.31,-22.31"
         style="fill:#f8ca20;fill-opacity:1;fill-rule:nonzero;stroke:none"
         id="path160" />
      <path
         d="m 3341,2015.65 v 70.77 l 85.65,78.15 c 15.01,-59.09 -32.37,-116.82 -85.65,-148.92"
         style="fill:#f59a0f;fill-opacity:1;fill-rule:nonzero;stroke:none"
         id="path162" />
      <path
         d="m 3395.31,2256.26 h -26.08 v -16.44 h 30.8 v -12.75 h -47.38 v 68.78 h 47.48 v -12.81 h -30.9 v -14.5 h 26.08 v -12.28"
         style="fill:#5761b6;fill-opacity:1;fill-rule:nonzero;stroke:none"
         id="path164" />
      <path
         d="m 3423.37,2264.15 h 10.48 c 3.15,0 5.52,0.83 7.11,2.49 1.59,1.65 2.39,3.96 2.39,6.93 0,2.97 -0.81,5.3 -2.42,6.98 -1.6,1.69 -3.96,2.54 -7.08,2.54 h -10.48 z m 8.97,-12.76 h -8.97 v -24.32 h -16.59 v 68.78 h 27.07 c 8.16,0 14.54,-1.82 19.13,-5.43 4.6,-3.62 6.9,-8.73 6.9,-15.33 0,-4.79 -0.97,-8.75 -2.91,-11.9 -1.93,-3.14 -4.97,-5.69 -9.09,-7.65 l 14.36,-27.76 v -0.71 h -17.76 l -12.14,24.32"
         style="fill:#5761b6;fill-opacity:1;fill-rule:nonzero;stroke:none"
         id="path166" />
      <path
         d="m 3486.48,2264.15 h 10.48 c 3.15,0 5.52,0.83 7.11,2.49 1.59,1.65 2.39,3.96 2.39,6.93 0,2.97 -0.81,5.3 -2.42,6.98 -1.6,1.69 -3.96,2.54 -7.08,2.54 h -10.48 z m 8.97,-12.76 h -8.97 v -24.32 h -16.59 v 68.78 h 27.07 c 8.16,0 14.54,-1.82 19.13,-5.43 4.6,-3.62 6.9,-8.73 6.9,-15.33 0,-4.79 -0.97,-8.75 -2.91,-11.9 -1.93,-3.14 -4.97,-5.69 -9.09,-7.65 l 14.36,-27.76 v -0.71 h -17.76 l -12.14,24.32"
         style="fill:#5761b6;fill-opacity:1;fill-rule:nonzero;stroke:none"
         id="path168" />
      <path
         d="m 3574.38,2262.92 c 0,6.83 -1.14,12.02 -3.43,15.56 -2.28,3.55 -5.54,5.32 -9.8,5.32 -8.31,0 -12.7,-6.23 -13.18,-18.7 l -0.04,-5.06 c 0,-6.74 1.11,-11.92 3.35,-15.54 2.24,-3.62 5.56,-5.43 9.97,-5.43 4.19,0 7.41,1.78 9.68,5.33 2.27,3.57 3.42,8.68 3.45,15.35 z m 16.86,-2.88 c 0,-6.71 -1.24,-12.65 -3.73,-17.81 -2.49,-5.16 -6.02,-9.14 -10.6,-11.93 -4.58,-2.78 -9.8,-4.18 -15.66,-4.18 -5.86,0 -11.06,1.35 -15.59,4.04 -4.54,2.7 -8.07,6.55 -10.61,11.55 -2.53,5.01 -3.86,10.76 -3.98,17.24 v 3.88 c 0,6.74 1.23,12.68 3.7,17.83 2.47,5.15 6.02,9.12 10.63,11.93 4.61,2.8 9.86,4.2 15.75,4.2 5.83,0 11.02,-1.39 15.59,-4.16 4.56,-2.77 8.12,-6.71 10.65,-11.83 2.54,-5.12 3.82,-10.99 3.85,-17.6 v -3.16"
         style="fill:#5761b6;fill-opacity:1;fill-rule:nonzero;stroke:none"
         id="path170" />
      <path
         d="m 3616.37,2264.15 h 10.49 c 3.15,0 5.52,0.83 7.11,2.49 1.59,1.65 2.38,3.96 2.38,6.93 0,2.97 -0.8,5.3 -2.41,6.98 -1.6,1.69 -3.96,2.54 -7.08,2.54 h -10.49 z m 8.98,-12.76 h -8.98 v -24.32 h -16.58 v 68.78 h 27.07 c 8.16,0 14.53,-1.82 19.13,-5.43 4.6,-3.62 6.9,-8.73 6.9,-15.33 0,-4.79 -0.97,-8.75 -2.91,-11.9 -1.94,-3.14 -4.97,-5.69 -9.09,-7.65 l 14.36,-27.76 v -0.71 h -17.76 l -12.14,24.32"
         style="fill:#5761b6;fill-opacity:1;fill-rule:nonzero;stroke:none"
         id="path172" />
      <path
         d="m 3066.24,1947.77 c 26.9,66.1 289.74,177.94 349.62,224.68 18.83,-0.18 -3.34,-53.93 -24.83,-75.24 -31.57,-31.31 -52.76,-44.18 -91.37,-72.62 7.04,-40.71 -0.78,-87.64 -30.79,-121.49 -25.55,-28.82 -64.72,-51.7 -109.4,-56.46 -44.68,-4.77 -73.01,69.87 -93.23,101.13"
         style="fill:#e4541f;fill-opacity:1;fill-rule:nonzero;stroke:none"
         id="path174" />
      <path
         d="m 3294.66,2024.36 c 0.09,-1.85 0.13,-3.71 0.13,-5.57 0.1,-63.46 -49.19,-126.95 -123.8,-156.3 -2.57,-1.01 -3.83,-3.91 -2.82,-6.48 1.01,-2.57 3.92,-3.83 6.49,-2.82 77.61,30.58 130.03,96.83 130.13,165.6 0,2.01 -0.05,4.01 -0.14,6.02 -0.12,2.76 -2.46,4.9 -5.22,4.77 -2.75,-0.12 -4.89,-2.46 -4.77,-5.22"
         style="fill:#100f0d;fill-opacity:1;fill-rule:nonzero;stroke:none"
         id="path176" />
      <path
         d="m 2470.86,2505.05 c -117.29,80.32 -194.16,143.28 -324.18,200.78 -46.09,20.38 -108.37,27.87 -158.57,23.36 -27.11,-51.09 -49.28,-104.8 -66.09,-160.13 -10.38,-2.12 -20.9,-4.26 -31.43,-6.39 198.53,-10.78 393.02,-68.56 575.04,-154.58 0.1,46.63 5.23,96.96 5.23,96.96"
         style="fill:#5761b6;fill-opacity:1;fill-rule:nonzero;stroke:none"
         id="path178" />
      <path
         d="m 4062.74,776.238 c 81.9,-78.539 208.44,-106.898 316.03,-70.84 -17.34,66.122 -25.44,139.442 -42.78,205.563 -118.44,56.098 -255.37,63.129 -379.08,19.867 21.69,-58.109 61.06,-111.668 105.83,-154.59"
         style="fill:#e4541f;fill-opacity:1;fill-rule:nonzero;stroke:none"
         id="path180" />
      <path
         d="m 4321.88,765.41 c 42.47,-15.5 136.86,-57.039 179.33,-72.539 20.51,-48.051 45.21,-102.762 65.73,-150.812 -33.1,-11.258 -81.7,57.043 -106.27,118.589 -52.99,18.301 -96.43,32.082 -149.41,50.391"
         style="fill:#e4541f;fill-opacity:1;fill-rule:nonzero;stroke:none"
         id="path182" />
      <path
         d="m 4324.48,842.281 c 56.49,-20.621 182.05,-75.883 238.54,-96.492 27.29,-63.918 60.15,-136.699 87.44,-200.617 -44.03,-14.973 -108.68,75.887 -141.36,157.769 -70.49,24.34 -128.26,42.668 -198.75,67.02"
         style="fill:#e4541f;fill-opacity:1;fill-rule:nonzero;stroke:none"
         id="path184" />
      <path
         d="m 4299.99,866.879 c 60.14,0.269 197.06,-8 257.2,-7.738 47.77,-50.481 103.83,-107.352 151.61,-157.813 -36.1,-29.316 -128.26,33.461 -187.32,98.91 -74.55,-1.617 -135.1,-4.468 -209.66,-6.09"
         style="fill:#e4541f;fill-opacity:1;fill-rule:nonzero;stroke:none"
         id="path186" />
      <path
         d="m 4254.34,928.16 c 60.14,0.27 197.06,-8 257.2,-7.73 47.77,-50.481 103.84,-107.348 151.6,-157.821 -36.08,-29.32 -128.24,33.461 -187.3,98.911 -74.56,-1.61 -135.1,-4.469 -209.66,-6.09"
         style="fill:#e4541f;fill-opacity:1;fill-rule:nonzero;stroke:none"
         id="path188" />
      <path
         d="m 4709.79,708.18 c -64.88,55.039 -113.02,105 -178.36,160.441 -0.79,0.668 -1.8,1.09 -2.84,1.168 -12.78,1 -24.9,1.41 -36.47,1.41 -51.96,-0.019 -92.82,-8.187 -133.6,-8.168 l -1.02,0.008 c -2.76,0 -5,-2.238 -5,-5 -0.01,-2.758 2.23,-5 4.99,-5 h 1.03 c 42.15,0.02 82.74,8.18 133.6,8.16 11.34,0 23.19,-0.398 35.69,-1.379 l 0.39,4.981 -3.24,-3.813 c 64.9,-55.047 113.03,-105 178.36,-160.437 2.11,-1.789 5.26,-1.531 7.05,0.578 1.79,2.101 1.53,5.262 -0.58,7.051"
         style="fill:#100f0d;fill-opacity:1;fill-rule:nonzero;stroke:none"
         id="path190" />
      <path
         d="m 2776.47,745.648 c -12.99,203.993 8.82,418.772 100.65,666.642 46.47,125.45 -22.46,410 -42.26,585.22 -10.25,90.73 -52.93,174.8 -121.55,235.04 -71.81,63.02 -164.71,135.94 -247.69,174.11 0,47.03 5.24,98.39 5.24,98.39 -117.29,80.32 -194.16,143.28 -324.18,200.78 -46.09,20.38 -108.37,27.87 -158.57,23.36 -27.11,-51.09 -49.28,-104.8 -66.09,-160.13 -101.9,-20.8 -212.07,-42.41 -318.49,-67.54 -96.1,-22.69 -169.14,-101.39 -184.19,-198.97 -34.42,-223.28 -31.74,-458.23 39.96,-667.62 39.83,-116.31 94.12,-227.3 133.04,-343.94 38.91,-116.62 62.22,-242.18 37.47,-362.611 -11.76,-57.199 -33.47,-110.238 -60.78,-160.988 399.35,-36.653 806.89,-55.7 1207.44,-21.743"
         style="fill:#73253b;fill-opacity:1;fill-rule:nonzero;stroke:none"
         id="path192" />
      <path
         d="M 1569.03,767.391 C 1499.54,638.281 1393.74,523.93 1322.92,393.359 1258.48,274.539 1222.93,140.18 1220.18,5.05078 H 2916.74 C 2860.37,262.809 2792.36,496.148 2776.47,745.648 2375.92,711.691 1968.38,730.738 1569.03,767.391"
         style="fill:#5761b6;fill-opacity:1;fill-rule:nonzero;stroke:none"
         id="path194" />
      <path
         d="m 1565.71,667.68 c 263.62,-25.828 528.5,-38.77 793.38,-38.77 122.83,0 245.66,2.781 368.36,8.352 2.76,0.117 4.9,2.457 4.77,5.218 -0.12,2.758 -2.46,4.891 -5.22,4.77 -122.55,-5.559 -245.23,-8.34 -367.91,-8.34 -264.55,0 -529.11,12.922 -792.4,38.719 -2.75,0.269 -5.2,-1.738 -5.47,-4.488 -0.27,-2.75 1.74,-5.192 4.49,-5.461"
         style="fill:#100f0d;fill-opacity:1;fill-rule:nonzero;stroke:none"
         id="path196" />
      <path
         d="m 2384.81,372.23 c 68.45,4.379 138.78,8.981 203.48,34.782 64.75,25.867 123.86,76.859 140.96,145.59 0.67,2.679 -0.97,5.398 -3.65,6.058 -2.68,0.66 -5.39,-0.969 -6.05,-3.648 -15.88,-64.43 -72.31,-113.731 -134.97,-138.711 -62.71,-25.051 -131.96,-29.75 -200.41,-34.102 -2.76,-0.168 -4.85,-2.551 -4.67,-5.301 0.17,-2.757 2.55,-4.847 5.31,-4.679"
         style="fill:#100f0d;fill-opacity:1;fill-rule:nonzero;stroke:none"
         id="path198" />
      <path
         d="m 1808.2,5.01172 v 1.32812 c 0,118.50016 26.53,237.09016 77.9,343.78916 1.2,2.492 0.15,5.48 -2.33,6.68 -2.49,1.203 -5.48,0.152 -6.68,-2.34 C 1825.05,246.371 1798.2,126.328 1798.2,6.33984 V 4.98828 c 0,-2.75781 2.25,-4.9999988 5.01,-4.98828 2.76,0 4.99,2.25 4.99,5.01172"
         style="fill:#100f0d;fill-opacity:1;fill-rule:nonzero;stroke:none"
         id="path200" />
      <path
         d="m 2838.14,1951.3 c -162.51,-54.94 -327.47,-102.62 -494.23,-142.86 l 1.17,-4.86 3.6,3.47 c -10.87,11.22 -21.65,30.64 -27.26,45.72 -17.15,45.76 -30.71,92.85 -40.54,140.72 -0.55,2.71 -3.2,4.45 -5.9,3.9 -2.71,-0.56 -4.45,-3.2 -3.89,-5.91 9.93,-48.38 23.63,-95.97 40.96,-142.22 6.14,-16.27 17.07,-36.26 29.43,-49.15 1.23,-1.27 3.05,-1.8 4.77,-1.39 167.05,40.31 332.3,88.08 495.09,143.1 2.61,0.89 4.02,3.73 3.13,6.34 -0.88,2.62 -3.72,4.02 -6.33,3.14"
         style="fill:#100f0d;fill-opacity:1;fill-rule:nonzero;stroke:none"
         id="path202" />
      <path
         d="M 4057.89,940.59 C 3729.97,927.219 3334.65,908.648 3000.36,894.781 l -159.4,1055.309 -196.5,-65.7 -298.33,-80.31 312.91,-1259.139 c 15.19,-61.101 75.65,-99.48 137.4,-87.171 373.05,74.359 984.61,229.16 1287.59,320.761 -8.93,57.231 -17.22,104.84 -26.14,162.059"
         style="fill:#e4541f;fill-opacity:1;fill-rule:nonzero;stroke:none"
         id="path204" />
      <path
         d="m 3068.25,3070.22 h 617.36 c 31.55,0 57.13,25.57 57.13,57.12 v 204.31 c 0,31.55 -25.58,57.13 -57.13,57.13 h -617.36 c -31.55,0 -57.13,-25.58 -57.13,-57.13 v -204.31 c 0,-31.55 25.58,-57.12 57.13,-57.12"
         style="fill:#f8ca20;fill-opacity:1;fill-rule:nonzero;stroke:none"
         id="path206" />
      <path
         d="m 3128.73,3094.05 -271.88,-156.33 187.68,233.51 z"
         style="fill:#f8ca20;fill-opacity:1;fill-rule:nonzero;stroke:none"
         id="path208" />
      <path
         d="m 3640.86,3286.82 h -525.74 c -2.76,0 -5,-2.24 -5,-5 0,-2.76 2.24,-5 5,-5 h 525.74 c 2.76,0 5,2.24 5,5 0,2.76 -2.24,5 -5,5"
         style="fill:#ffffff;fill-opacity:1;fill-rule:nonzero;stroke:none"
         id="path210" />
      <path
         d="m 3640.86,3241.82 h -525.74 c -2.76,0 -5,-2.23 -5,-5 0,-2.76 2.24,-5 5,-5 h 525.74 c 2.76,0 5,2.24 5,5 0,2.77 -2.24,5 -5,5"
         style="fill:#ffffff;fill-opacity:1;fill-rule:nonzero;stroke:none"
         id="path212" />
      <path
         d="m 3640.86,3196.83 h -207.67 c -2.76,0 -5,-2.23 -5,-5 0,-2.76 2.24,-5 5,-5 h 207.67 c 2.76,0 5,2.24 5,5 0,2.77 -2.24,5 -5,5"
         style="fill:#ffffff;fill-opacity:1;fill-rule:nonzero;stroke:none"
         id="path214" />
      <g
         id="g216"
         transform="scale(10)">
        <text
           xml:space="preserve"
           transform="matrix(1,0,0,-1,185.688,420.917)"
           style="font-variant:normal;font-weight:900;font-size:30.679px;font-family:RobotoSlab;-inkscape-font-specification:RobotoSlab-Black;writing-mode:lr-tb;fill:#5761b6;fill-opacity:1;fill-rule:nonzero;stroke:none"
           id="text220"><tspan
             x="0 21.300299 41.896515 58.7178 70.580597 89.3946 118.67929 136.23448 151.03329 159.72078 180.00208 197.55779 212.62617 232.9084 244.12718 261.4729 279.02756 287.71509 322.49728 339.85767 357.41333"
             y="0"
             sodipodi:role="line"
             id="tspan218">Customer Service Week</tspan></text>
        <text
           xml:space="preserve"
           transform="matrix(1,0,0,-1,261.83158,456.7334)"
           style="font-variant:normal;font-weight:900;font-size:20.7807px;font-family:Roboto;-inkscape-font-specification:Roboto-Black;writing-mode:lr-tb;fill:#5761b6;fill-opacity:1;fill-rule:nonzero;stroke:none"
           id="text224"><tspan
             x="0 11.673787 31.373474 49.875862 66.907166 85.866661 106.04298 124.38326 142.88615 154.5591 174.31009 194.48691 214.04451 230.71049"
             y="0"
             sodipodi:role="line"
             id="tspan222">INTERNATIONAL </tspan></text>
      </g>
    </g>
  </g>
</svg>
